<?xml version="1.0" standalone="no"?>
<!DOCTYPE svg PUBLIC "-//W3C//DTD SVG 20010904//EN"
 "http://www.w3.org/TR/2001/REC-SVG-20010904/DTD/svg10.dtd">
<svg version="1.0" xmlns="http://www.w3.org/2000/svg"
 width="1024.000000pt" height="1024.000000pt" viewBox="0 0 1024.000000 1024.000000"
 preserveAspectRatio="xMidYMid meet">
<metadata>
Created by potrace 1.14, written by Peter Selinger 2001-2017
</metadata>
<g transform="translate(0.000000,1024.000000) scale(0.100000,-0.100000)"
fill="#000000" stroke="none">
<path d="M5520 9051 c0 -5 24 -26 54 -46 99 -65 175 -163 217 -277 22 -60 24
-88 8 -88 -6 0 -37 16 -69 35 -173 105 -435 190 -650 211 -138 14 -447 7 -570
-12 -43 -6 -128 -22 -155 -28 -11 -2 -42 -9 -70 -16 -167 -37 -545 -174 -545
-196 0 -3 3 -3 8 0 4 2 39 7 77 11 39 4 79 9 90 12 32 6 273 5 350 -2 98 -9
205 -37 205 -54 0 -3 -62 -6 -138 -7 -420 -1 -755 -79 -1106 -256 -227 -114
-406 -243 -592 -425 -29 -29 -51 -53 -48 -53 4 0 40 16 81 35 41 19 80 35 87
35 7 0 16 4 22 9 24 24 458 150 471 137 1 -1 -37 -22 -85 -47 -289 -147 -584
-362 -813 -591 -220 -219 -504 -617 -565 -790 -7 -21 -10 -38 -7 -38 3 0 54
47 114 104 129 125 226 203 357 289 135 88 212 130 212 115 0 -7 -32 -58 -71
-113 -331 -465 -543 -842 -702 -1245 -123 -313 -219 -718 -244 -1035 -13 -159
-6 -491 12 -605 2 -14 9 -59 14 -100 51 -365 184 -746 361 -1035 133 -217 195
-280 144 -147 -57 150 -122 373 -139 472 -3 19 -10 58 -15 85 -28 150 -43 488
-26 605 3 19 8 58 11 85 3 28 10 75 15 105 5 30 12 71 15 90 3 19 17 79 31
133 91 359 236 681 457 1012 44 66 83 122 86 125 4 3 31 39 61 80 30 41 65 86
76 100 12 14 52 61 89 105 136 163 151 180 179 207 16 16 31 26 33 24 6 -5
-30 -74 -71 -139 -212 -330 -460 -843 -583 -1202 -33 -97 -96 -334 -107 -405
-3 -19 -8 -44 -10 -55 -2 -12 -7 -48 -11 -80 -4 -33 -9 -69 -11 -80 -21 -112
-21 -480 0 -635 2 -14 6 -50 11 -80 46 -340 183 -701 381 -1003 37 -56 70
-104 73 -107 3 -3 26 -32 51 -64 65 -86 193 -230 279 -314 69 -67 91 -83 91
-64 0 6 -68 101 -98 137 -23 28 -146 222 -197 310 -209 364 -359 814 -393
1185 -12 139 -4 627 12 716 2 11 7 55 11 99 4 44 8 87 10 95 2 8 6 44 10 80 4
36 8 67 10 70 2 3 6 28 9 55 22 166 104 434 143 466 13 12 14 7 8 -41 -4 -29
-8 -62 -11 -73 -2 -10 -6 -45 -9 -76 -3 -31 -8 -65 -10 -76 -20 -103 -27 -480
-11 -655 4 -52 9 -108 11 -125 5 -58 21 -176 30 -225 3 -14 7 -41 9 -60 12
-92 71 -326 119 -466 223 -651 630 -1140 1178 -1411 263 -130 544 -221 799
-258 49 -7 203 -25 212 -25 5 0 -40 25 -99 56 -130 68 -239 132 -358 210 -91
58 -258 179 -285 205 -8 8 -40 34 -70 58 -67 55 -297 286 -337 338 -15 21 -47
62 -70 91 -218 270 -446 778 -518 1151 -11 58 -34 209 -40 261 -3 30 -8 73
-10 95 -6 51 -6 357 0 410 2 22 7 67 10 100 5 51 15 116 40 260 3 17 19 82 35
146 99 388 271 737 520 1049 159 200 437 459 665 619 84 59 194 131 201 131
14 0 -58 -107 -181 -270 -279 -371 -428 -603 -580 -901 -81 -161 -135 -289
-184 -444 -38 -117 -83 -304 -96 -390 -3 -23 -8 -52 -10 -65 -14 -64 -20 -170
-20 -340 0 -223 8 -306 51 -520 114 -575 431 -1095 889 -1460 122 -97 333
-231 620 -395 285 -162 442 -261 580 -366 114 -86 131 -101 236 -205 48 -48
92 -85 97 -83 17 6 -96 265 -177 404 -119 205 -351 480 -586 696 -46 41 -227
194 -349 294 -148 120 -204 171 -336 304 -80 80 -178 189 -218 241 -39 52 -75
100 -80 105 -4 6 -39 59 -76 119 -178 283 -307 625 -342 906 -3 24 -7 47 -9
50 -7 11 -19 210 -19 325 0 119 11 334 19 358 2 7 6 30 9 52 15 122 71 322
136 486 236 592 582 998 1095 1284 66 36 129 75 139 85 19 18 18 18 -20 10
-21 -5 -57 -11 -79 -14 -22 -4 -65 -11 -95 -16 -62 -10 -103 -16 -175 -25 -45
-6 -192 -28 -270 -41 -70 -11 -257 -56 -287 -68 -72 -30 -80 -25 -18 10 36 21
112 55 170 75 114 40 114 45 -3 53 -99 7 -89 23 33 55 41 11 97 22 123 25 130
15 249 37 301 56 105 40 195 122 247 227 54 108 45 217 -23 285 -22 22 -37 43
-33 46 13 13 145 19 385 16 135 -1 256 -4 270 -7 14 -3 48 -8 75 -11 116 -13
301 -63 445 -121 309 -123 632 -345 938 -642 29 -29 57 -53 62 -53 26 0 18 78
-14 128 -26 41 -99 112 -116 112 -5 0 -10 4 -10 9 0 4 -26 28 -57 53 -32 25
-68 54 -80 64 -29 26 -50 43 -100 83 -24 19 -43 38 -43 43 0 20 445 -227 605
-335 58 -39 124 -103 125 -120 0 -5 4 -6 8 -3 4 2 8 -3 9 -12 1 -9 6 -34 11
-54 8 -31 6 -45 -10 -78 -11 -22 -24 -40 -29 -40 -4 0 -24 24 -43 54 -37 59
-94 121 -103 113 -3 -3 6 -21 20 -39 14 -18 28 -49 32 -68 18 -85 71 -148 254
-300 16 -14 40 -34 54 -45 13 -11 36 -29 51 -40 16 -11 33 -25 40 -31 41 -38
178 -124 187 -118 8 4 9 3 5 -4 -3 -6 3 -16 16 -23 12 -6 27 -16 32 -20 6 -5
40 -28 76 -50 36 -23 84 -55 107 -70 23 -16 46 -29 51 -29 6 0 12 -3 14 -7 2
-5 56 -44 120 -87 118 -79 218 -166 251 -219 10 -15 23 -25 29 -21 7 4 8 3 4
-5 -4 -6 5 -33 21 -59 45 -73 55 -102 40 -107 -6 -2 -58 -18 -115 -37 l-103
-33 -47 26 c-96 54 -175 58 -300 18 -89 -29 -129 -21 -222 49 -41 31 -84 64
-94 74 -38 35 -55 20 -50 -45 4 -52 46 -121 116 -189 57 -55 163 -118 200
-118 10 0 34 -7 53 -14 31 -13 34 -18 26 -38 -4 -13 -7 -32 -5 -43 4 -30 35
-105 42 -105 4 0 14 -15 22 -33 19 -41 21 -122 4 -168 -9 -28 -10 -40 -1 -49
8 -9 8 -11 1 -7 -7 4 -24 -12 -39 -36 -31 -46 -71 -85 -127 -124 -21 -14 -35
-30 -31 -36 3 -5 1 -7 -4 -4 -6 4 -50 -18 -98 -48 -91 -57 -285 -160 -345
-183 -56 -21 -162 -52 -200 -58 -19 -3 -46 -7 -60 -10 -34 -6 -229 -6 -260 1
-14 3 -52 10 -85 16 -33 6 -105 26 -160 46 -241 84 -249 86 -415 91 -150 4
-155 4 -139 -14 9 -11 24 -44 33 -74 10 -30 19 -61 22 -68 2 -9 -4 -11 -24 -6
-99 22 -194 85 -311 211 -62 66 -79 79 -65 53 76 -153 225 -287 439 -394 22
-11 42 -20 45 -21 18 -2 152 -90 183 -119 41 -40 45 -55 22 -90 -22 -33 -35
-81 -41 -151 -3 -33 -7 -61 -8 -62 -1 -1 -28 11 -61 28 -33 16 -125 50 -205
75 -80 25 -179 57 -220 71 -88 29 -320 141 -320 154 0 5 -5 9 -11 9 -20 0
-142 102 -218 182 -41 43 -78 78 -83 78 -18 0 -5 -26 49 -102 69 -96 180 -208
288 -293 94 -73 373 -265 385 -265 5 0 10 -4 12 -8 2 -4 25 -23 53 -42 27 -19
61 -45 75 -57 13 -13 28 -23 32 -23 3 0 13 -6 20 -13 7 -7 49 -41 93 -77 108
-87 268 -248 336 -340 133 -179 238 -410 273 -601 2 -13 5 -24 6 -24 5 0 14
-136 14 -225 0 -150 -13 -252 -49 -375 -1 -5 -6 -25 -10 -43 -4 -18 -12 -35
-16 -38 -11 -7 -12 -34 -1 -34 10 0 88 105 154 206 196 301 252 621 162 932
-9 29 -20 50 -25 47 -5 -3 -6 0 -4 7 5 12 -41 111 -65 142 -97 121 -224 227
-252 210 -6 -4 -8 -3 -5 3 4 6 -15 22 -41 36 -103 56 -178 141 -200 225 -19
78 -5 207 25 225 5 3 19 -11 33 -31 13 -20 49 -62 79 -91 l56 -55 10 38 c6 20
14 38 19 38 5 1 23 -10 40 -24 38 -31 110 -68 130 -68 8 0 17 13 21 30 4 16
10 30 14 30 4 0 24 -18 46 -40 21 -21 42 -37 47 -34 5 3 7 1 6 -5 -3 -12 150
-130 169 -131 8 0 11 16 8 50 l-5 50 43 -17 c23 -9 66 -31 95 -50 29 -18 64
-33 79 -33 16 0 52 18 85 41 l58 40 6 -30 c4 -16 14 -37 23 -46 16 -14 19 -13
32 12 26 53 54 85 104 121 82 61 87 64 157 132 76 73 127 149 153 228 20 63
24 85 29 175 3 59 7 71 27 84 91 61 197 235 243 398 2 6 6 17 9 25 3 8 8 24
10 35 3 11 14 52 25 90 11 39 37 146 57 240 34 154 37 176 29 241 -5 40 -7 72
-3 71 4 -1 21 10 38 26 17 15 35 27 40 27 16 0 62 87 65 122 4 42 -20 98 -80
190 -101 155 -195 237 -521 452 -270 178 -334 221 -350 231 -9 6 -24 17 -34
25 -10 8 -28 23 -41 32 -69 52 -148 117 -186 155 -45 44 -44 40 -23 128 12 50
6 136 -11 147 -7 4 -10 8 -5 8 9 0 -17 52 -41 82 -22 27 -54 58 -83 83 -29 25
-360 253 -409 283 -41 24 -68 67 -63 102 11 86 10 173 -1 212 -18 58 -62 134
-76 130 -6 -1 -9 2 -5 7 3 6 -4 15 -16 22 -20 10 -26 7 -59 -27 -43 -45 -101
-92 -139 -112 -50 -28 -120 -50 -123 -40 -2 5 9 35 24 66 26 55 59 150 62 182
1 9 6 21 10 28 15 25 20 248 6 314 -59 295 -277 572 -565 716 -92 47 -204 86
-290 101 -33 6 -69 13 -80 15 -60 12 -185 17 -185 7z m-1465 -1292 c146 -31
293 -110 408 -218 27 -25 81 -89 119 -141 39 -52 87 -112 106 -132 l35 -37
-26 -6 c-54 -14 -123 22 -220 114 -171 163 -306 232 -482 247 -227 20 -412
-111 -470 -333 -42 -161 10 -333 148 -488 48 -54 173 -145 199 -145 8 0 18 -4
24 -8 5 -5 30 -17 57 -26 26 -10 47 -22 47 -27 0 -6 -12 -22 -26 -36 -23 -23
-31 -25 -80 -19 -121 14 -270 93 -366 194 -139 146 -201 307 -194 507 6 165
57 286 169 399 139 140 346 198 552 155z m4514 -2591 c-2 -35 -5 -67 -8 -73
-3 -5 -6 -14 -7 -20 -1 -5 -4 -23 -7 -40 -35 -211 -204 -654 -249 -655 -4 0
-7 33 -7 74 0 70 -28 183 -53 213 -10 12 -7 133 3 133 4 0 10 11 13 25 4 14
19 51 33 83 15 31 27 62 26 69 0 7 2 11 6 10 3 -1 33 25 67 58 33 33 72 70 85
81 27 24 38 37 63 77 29 43 38 33 35 -35z m-499 -713 c26 -14 34 -14 48 -3 15
11 15 11 4 -3 -10 -13 -9 -19 3 -29 28 -24 36 -47 24 -74 -9 -19 -9 -38 0 -78
17 -74 22 -185 9 -217 -25 -62 -61 -131 -69 -131 -5 0 -9 -7 -9 -15 0 -26 -21
-16 -31 15 -14 38 -23 38 -39 1 -23 -58 -139 -191 -165 -191 -14 0 -10 62 6
91 10 19 21 99 14 99 -2 0 -11 -12 -19 -27 -24 -45 -99 -117 -153 -148 -15 -8
-43 -24 -61 -35 -28 -17 -36 -18 -57 -7 -40 20 -135 118 -156 159 -24 46 -52
53 -39 9 8 -27 -1 -54 -45 -133 -14 -26 -19 -23 -37 30 -19 54 -77 127 -107
135 -19 5 -91 -35 -91 -51 0 -4 -14 -22 -32 -41 l-31 -33 -18 23 c-39 53 -53
140 -33 207 6 22 5 23 -13 11 -11 -7 -35 -34 -53 -62 l-32 -49 -36 34 c-20 18
-40 39 -45 46 -5 7 -13 9 -19 6 -6 -4 -8 -2 -4 4 3 6 -2 17 -12 24 -20 14 -70
85 -96 136 -43 84 -48 242 -8 242 10 0 46 -18 81 -40 36 -21 67 -38 69 -35 2
2 13 -4 24 -15 22 -20 159 -68 220 -76 64 -9 199 -10 248 -2 150 25 198 41
378 129 239 117 305 134 382 94z"/>
<path d="M6490 7148 c0 -22 -8 -41 -24 -55 -86 -82 -81 -228 10 -350 13 -17
24 -35 24 -40 0 -4 -35 -7 -77 -5 -62 3 -95 -2 -163 -23 -193 -59 -183 -57
-325 -69 -86 -8 -93 -15 -41 -42 127 -64 175 -97 273 -185 94 -84 122 -93 318
-93 194 -1 206 -5 293 -88 43 -40 73 -58 167 -99 11 -4 43 -15 72 -23 28 -8
61 -19 72 -26 19 -9 21 -8 21 13 0 13 -7 47 -16 76 -23 80 -80 135 -193 189
-147 70 -179 106 -301 337 l-53 99 13 76 c28 156 16 239 -46 313 l-24 29 0
-34z m-123 -546 c22 -14 26 -61 8 -88 -15 -24 -19 -25 -32 -11 -8 8 -19 33
-23 56 -6 32 -4 41 9 44 25 7 25 7 38 -1z m-127 -97 c58 -73 146 -94 229 -52
34 17 43 13 85 -44 l27 -37 -32 -4 c-75 -11 -224 -2 -257 15 -58 31 -144 142
-125 161 16 16 41 2 73 -39z"/>
<path d="M4507 6367 c-9 -15 -17 -29 -17 -33 0 -3 -8 -18 -19 -32 -26 -38
-160 -306 -214 -432 -79 -183 -164 -456 -190 -610 -3 -14 -8 -45 -12 -70 -4
-25 -9 -54 -11 -65 -18 -90 -26 -508 -12 -620 65 -529 290 -968 693 -1356 145
-140 146 -141 619 -534 188 -156 403 -362 502 -480 73 -87 184 -240 184 -253
0 -6 4 -12 9 -14 7 -2 104 -173 107 -188 0 -3 10 -25 21 -50 49 -110 109 -341
112 -433 2 -39 33 8 45 66 29 144 36 186 45 290 10 117 6 233 -14 377 -24 179
-119 438 -219 600 -159 257 -389 503 -711 760 -44 35 -87 70 -95 77 -8 7 -64
54 -125 105 -178 148 -302 271 -415 411 -344 429 -516 935 -513 1512 2 336 56
569 203 868 49 100 65 162 27 104z"/>
<path d="M4672 6163 c-36 -67 -109 -371 -119 -493 -13 -156 -6 -345 17 -470 5
-30 11 -66 14 -80 9 -53 48 -209 72 -290 88 -288 265 -619 447 -837 127 -152
262 -288 447 -453 413 -366 631 -617 783 -900 51 -96 109 -235 133 -319 8 -31
20 -72 25 -91 28 -103 44 -249 44 -415 0 -162 -5 -211 -35 -330 -12 -48 -18
-91 -13 -96 9 -9 150 153 226 263 73 104 151 262 178 358 17 63 19 72 23 100
2 14 7 34 12 45 10 24 12 295 2 345 -3 19 -9 51 -13 70 -20 102 -130 367 -157
378 -4 2 -8 8 -8 13 0 13 -81 129 -138 199 -44 54 -213 224 -264 266 -187 156
-271 215 -503 359 -355 219 -482 312 -642 473 -72 72 -110 116 -200 226 -33
41 -123 185 -166 269 -176 335 -262 755 -220 1081 14 118 13 113 48 239 25 94
28 130 7 90z"/>
<path d="M7011 5261 c-22 -14 -5 -28 51 -42 29 -7 55 -12 58 -12 3 0 14 -3 26
-7 20 -8 38 -11 189 -29 39 -4 150 -8 248 -7 144 2 180 5 187 16 14 21 12 27
-7 35 -18 6 -46 8 -293 20 -69 4 -145 8 -170 10 -25 3 -71 7 -102 10 -32 3
-84 7 -115 10 -32 3 -64 1 -72 -4z"/>
<path d="M6855 5040 c-16 -26 15 -36 255 -81 215 -40 375 -43 649 -14 35 4 74
10 86 15 13 5 26 6 29 3 3 -3 9 2 12 12 8 19 -21 49 -37 39 -24 -15 -400 -22
-529 -10 -117 11 -252 26 -280 31 -67 12 -179 15 -185 5z"/>
<path d="M6832 4832 c-40 -26 175 -106 338 -127 92 -12 254 -13 268 -3 8 7 12
7 12 -1 0 -7 3 -10 8 -8 6 4 157 19 200 20 6 0 12 3 12 6 0 4 12 6 27 5 59 -2
143 31 143 57 0 4 -21 6 -47 4 -180 -15 -232 -18 -348 -20 -117 -1 -231 5
-335 19 -33 4 -217 42 -250 51 -8 3 -21 1 -28 -3z"/>
</g>
</svg>
