<?xml version="1.0" encoding="UTF-8" standalone="no"?>
<svg
   version="1.1"
   id="Layer_1"
   x="0px"
   y="0px"
   width="1000"
   viewBox="0 0 1000 1000"
   enable-background="new 0 0 1024 784"
   xml:space="preserve"
   sodipodi:docname="icon-alt.svg"
   height="1000"
   inkscape:version="1.3.2 (091e20e, 2023-11-25, custom)"
   xmlns:inkscape="http://www.inkscape.org/namespaces/inkscape"
   xmlns:sodipodi="http://sodipodi.sourceforge.net/DTD/sodipodi-0.dtd"
   xmlns:xlink="http://www.w3.org/1999/xlink"
   xmlns="http://www.w3.org/2000/svg"
   xmlns:svg="http://www.w3.org/2000/svg"><defs
   id="defs6"><linearGradient
     id="linearGradient15"
     inkscape:collect="always"><stop
       style="stop-color:#356de9;stop-opacity:0.80000001;"
       offset="0"
       id="stop13" /><stop
       style="stop-color:#1a6ea3;stop-opacity:0.80000001;"
       offset="0.5027523"
       id="stop14" /><stop
       style="stop-color:#0d83f2;stop-opacity:0.75;"
       offset="1"
       id="stop15" /></linearGradient><linearGradient
     inkscape:collect="always"
     xlink:href="#linearGradient15"
     id="linearGradient2"
     x1="149"
     y1="498.75"
     x2="869"
     y2="498.75"
     gradientUnits="userSpaceOnUse"
     gradientTransform="translate(-9.0000021,1.2500047)" /></defs><sodipodi:namedview
   id="namedview6"
   pagecolor="#ffffff"
   bordercolor="#000000"
   borderopacity="0.25"
   inkscape:showpageshadow="2"
   inkscape:pageopacity="0.0"
   inkscape:pagecheckerboard="0"
   inkscape:deskcolor="#d1d1d1"
   showguides="true"
   inkscape:zoom="1"
   inkscape:cx="568.5"
   inkscape:cy="466.5"
   inkscape:window-width="2560"
   inkscape:window-height="1494"
   inkscape:window-x="-11"
   inkscape:window-y="-11"
   inkscape:window-maximized="1"
   inkscape:current-layer="Layer_1"><sodipodi:guide
     position="100.00391,992.53125"
     orientation="1,0"
     id="guide6"
     inkscape:locked="false" /><sodipodi:guide
     position="901,983.94141"
     orientation="1,0"
     id="guide7"
     inkscape:locked="false" /><sodipodi:guide
     position="13.988281,900"
     orientation="0,-1"
     id="guide8"
     inkscape:locked="false" /><sodipodi:guide
     position="95.566406,99.996094"
     orientation="0,-1"
     id="guide9"
     inkscape:locked="false" /></sodipodi:namedview>






<path
   id="path1"
   d="m 540.71523,115.26652 c -0.81581,0.0753 -1.60713,0.43029 -2.24576,1.50594 15.57713,8.86827 26.04429,21.38502 29.4807,39.65821 -3.33457,0.11049 -4.74225,-1.50395 -6.40607,-2.50598 -28.6075,-17.22928 -59.83279,-23.74711 -93.39804,-22.61831 -36.97043,0.68847 -71.31136,10.07898 -104.1838,25.66533 12.29212,-1.97266 24.62365,-3.23215 36.99002,-2.97085 20.79274,0.43934 31.94602,2.5487 37.31135,6.55306 -35.30036,-1.22321 -69.25223,2.92055 -101.76365,15.45195 -32.57221,12.5548 -61.00961,31.43418 -84.94223,57.079 21.38779,-10.36744 43.45184,-18.39349 67.0547,-22.05774 -31.81254,15.19071 -60.47172,34.75779 -85.82013,59.04785 -24.9679,23.92536 -60.49247,74.32755 -59.35922,85.25229 19.89735,-20.91109 41.15838,-38.96354 67.46425,-51.67445 -0.92599,4.26614 -3.47579,6.54162 -5.36155,9.14499 -28.56584,39.43575 -53.9202,80.68019 -71.40116,126.32463 -13.24428,34.58215 -21.67695,70.33318 -23.71351,107.30415 -1.3106,23.79235 0.49135,47.54682 4.66001,71.09728 7.02174,39.6688 21.72633,76.10641 45.3498,108.87259 1.07463,1.49061 1.82124,3.49865 4.46601,3.96504 -0.12296,-3.21579 -1.40166,-5.7197 -2.41035,-8.31096 -16.71771,-42.94691 -22.42806,-87.05844 -14.56986,-132.72729 6.61259,-38.42997 20.68667,-73.93629 41.06997,-107.09711 14.10609,-22.94859 30.88526,-43.88446 48.48522,-64.19069 3.13716,-3.6195 5.88974,-7.82485 11.04841,-11.10992 -1.33929,5.642 -4.33472,9.09884 -6.6216,12.82485 -21.50794,35.04278 -40.27894,71.47307 -54.62475,109.98788 -13.43463,36.0684 -19.80478,73.36862 -18.18343,112.06416 1.12767,26.91372 6.01447,52.92086 15.54185,78.00583 14.78698,38.9331 39.18238,71.39645 69.13582,99.97371 0.77871,0.74283 1.4979,1.84261 3.96434,1.06645 -34.79231,-45.15313 -58.77847,-94.66332 -66.85678,-151.32587 -6.66252,-46.73195 5.20693,-150.91039 19.67079,-163.57648 1.40365,1.31117 0.5027,2.77767 0.28611,4.18771 -2.65293,17.27166 -4.84303,34.59976 -5.28513,52.08267 -0.44249,17.4981 0.86544,34.93278 2.82383,52.30728 4.54146,40.2912 15.52917,78.59958 35.4086,114.19708 21.09033,37.7658 50.09763,67.49195 88.34413,88.26219 27.49089,14.92919 56.78353,24.0513 87.58973,28.71627 6.14039,0.92979 12.3463,1.42543 18.52241,2.12119 C 404.79652,816.56674 351.7148,774.64757 320.62499,709.55969 289.81519,645.05808 283.24273,577.61783 302.88248,509.23334 c 21.25299,-74.00162 69.40259,-128.2269 134.21718,-168.42633 -4.2848,8.96516 -10.1243,16.76882 -16.22968,24.46606 -16.187,20.40763 -30.90914,41.8341 -44.36411,64.15357 -14.26189,23.65808 -26.41919,48.25987 -34.27397,74.75958 -8.57357,28.92449 -12.84245,58.38726 -10.66432,88.71534 2.46611,34.33851 11.11719,66.85662 26.54322,97.64156 17.21076,34.34676 41.61962,62.62251 72.42017,85.48862 19.7626,14.67161 41.48664,26.16153 62.81015,38.33588 27.8876,15.92204 55.04749,32.96914 76.81758,57.14152 0.87702,0.97385 1.71369,2.47872 3.65273,1.95319 -0.27501,-4.69263 -3.23484,-8.1382 -4.68937,-12.1568 -5.53899,-15.30339 -13.62013,-29.27701 -22.90225,-42.56855 -18.77996,-26.89187 -42.12819,-49.43467 -67.44857,-70.10504 -14.99249,-12.23918 -30.18263,-24.27918 -44.06822,-37.78313 -18.03377,-17.53808 -33.30567,-37.15543 -45.76525,-59.12012 -26.59806,-46.889 -34.45666,-97.21838 -28.0247,-149.97815 3.74862,-30.74908 15.29476,-59.13159 29.94906,-86.37733 22.16179,-41.20388 53.91593,-72.52104 95.48697,-94.05545 3.91249,-2.02665 8.00348,-3.84635 11.01117,-7.56288 -33.7876,7.21084 -68.88949,7.30507 -101.5579,20.0928 10.66106,-7.29955 22.43256,-11.84849 34.96767,-15.12184 -5.97776,-2.4158 -12.57279,-0.49885 -19.22987,-3.30485 1.60782,-0.73945 2.31329,-1.12045 3.05703,-1.39851 11.85741,-4.43305 24.34077,-5.59647 36.77646,-7.0902 16.37136,-1.96652 28.7286,-10.05776 36.89782,-24.42699 5.088,-8.94932 6.16909,-24.50864 -5.06953,-31.40977 -0.54712,-0.33595 -0.93219,-0.9659 -0.53297,-1.77157 1.45885,-1.27066 3.30538,-1.33008 5.14398,-1.39459 14.85082,-0.52139 29.66411,-1.08829 44.5699,-0.55667 26.49809,0.94501 51.71062,6.91932 75.43409,18.19426 30.88837,14.68009 57.92455,35.01293 82.08508,59.15333 1.7175,1.71608 3.06618,3.99867 5.71036,4.59398 1.66051,-2.60673 1.49025,-2.59022 1.26982,-4.87135 -0.86658,-8.96799 -7.54185,-13.77604 -13.641,-18.90719 -9.86666,-8.30066 -19.89366,-16.41161 -29.85303,-24.60278 1.21052,-0.38811 1.97435,-0.14154 2.6808,0.21681 20.11931,10.20738 39.84652,21.10302 58.68899,33.52315 4.62907,3.05127 8.58109,6.88099 11.54423,11.65488 3.89092,6.26876 3.27819,12.36979 -2.0772,18.08683 -4.41044,-6.39023 -7.72294,-13.66032 -14.56205,-18.01847 1.01166,3.94728 4.86114,6.19446 5.42622,10.40677 0.85223,6.35388 4.08767,11.60992 8.66547,15.97344 12.34008,11.76238 25.42232,22.66425 39.47097,32.33559 18.83735,12.9681 38.51911,24.67135 57.22713,37.85539 12.62944,8.90029 22.18597,19.9545 27.75617,34.90604 -7.01078,2.37322 -13.77906,4.63478 -20.52315,6.96909 -1.46537,0.50717 -2.56311,0.004 -3.73119,-0.74808 -10.10365,-6.50261 -20.60994,-7.99194 -31.87735,-2.96304 -6.68982,2.98578 -13.07221,1.85821 -18.81829,-2.68178 -4.05858,-3.20666 -8.08937,-6.44725 -12.15958,-9.63914 -1.0221,-0.80161 -2.06406,-1.93793 -3.55079,-1.18365 -1.42122,0.7211 -1.27162,2.1852 -1.37176,3.51579 -0.43444,5.77052 2.46378,10.29895 5.74558,14.53197 7.37178,9.50847 16.42304,16.54184 28.7282,18.59859 2.00937,0.33585 5.45862,0.78639 4.49934,3.47868 -2.6508,7.44019 1.97395,12.37116 5.2107,17.80948 1.23731,2.07884 1.96172,4.08139 2.06155,6.51595 0.51491,12.55871 -4.67744,22.18495 -14.70704,29.52881 -13.65233,9.99646 -28.17335,18.47022 -43.43925,25.80596 -24.06571,11.56441 -48.88924,12.678 -74.19557,5.57255 -13.0986,-3.67773 -25.14249,-10.78979 -39.25927,-11.29158 -7.20472,-0.25611 -14.33751,-0.2972 -22.58479,-0.44924 4.93187,5.45962 4.7902,11.06611 6.69613,16.99499 -19.48189,-3.61365 -29.52815,-18.07971 -41.22088,-30.45855 4.17848,9.4697 10.06703,17.61825 17.59944,24.46996 9.08698,8.26591 19.71938,14.23918 30.67416,19.69434 7.17583,3.57348 14.36008,7.21857 20.06663,13.03386 1.42674,1.45392 3.73109,2.99246 2.0752,5.49831 -4.59737,6.9575 -5.34184,14.88314 -5.7809,23.44062 -11.45283,-6.97116 -23.80234,-10.00086 -35.94948,-13.5788 -26.94126,-7.93532 -51.30225,-20.06688 -69.58847,-42.20912 -1.08601,-1.31495 -2.19509,-3.32579 -4.59336,-2.9396 0,0.66867 -0.10184,1.03826 0.0191,1.30865 0.33932,0.75596 0.73734,1.49221 1.17179,2.19933 10.32127,16.79874 24.66089,29.72396 40.49386,41.0704 13.02515,9.33432 26.66505,17.8278 39.55124,27.3412 25.11399,18.54052 48.60801,38.70459 63.45682,67.00137 17.67057,33.67377 21.20942,68.58188 9.74526,104.91927 -0.62207,1.97166 -2.39436,3.64527 -1.78915,6.00812 1.87734,0.31667 2.35442,-1.2298 3.06488,-2.18176 3.68915,-4.9428 7.41683,-9.86701 10.86026,-14.97925 15.96703,-23.70508 24.61043,-49.46697 20.90542,-78.3203 -2.43358,-18.95185 -10.13254,-35.43353 -24.94222,-48.13129 -5.10515,-4.37704 -11.03976,-7.49189 -16.77641,-10.90484 -6.2053,-3.6917 -12.12215,-7.65786 -16.16498,-13.90108 -5.46003,-8.43181 -5.9948,-23.94309 -0.71136,-30.82184 4.89616,6.32837 8.85962,13.53558 16.30213,17.41688 1.98148,-2.42492 0.74127,-5.40042 2.92381,-7.58436 4.98967,4.7421 10.35128,8.81282 17.07621,10.27004 1.88215,-2.1903 1.51523,-4.73407 2.76117,-7.11559 7.39826,9.17501 17.02242,15.2637 26.26491,22.08313 2.50803,-3.77082 -0.16946,-6.94828 0.22736,-10.35794 5.78099,2.09214 11.29531,4.45237 16.10819,8.05704 3.68574,2.76032 7.02191,2.46466 10.4801,-0.10352 2.619,-1.94491 5.2117,-3.92341 7.95802,-5.99443 1.77801,3.00117 1.16598,7.09032 5.55365,8.38713 1.91084,-4.51957 4.06008,-8.66084 7.83852,-11.58846 3.8236,-2.96255 7.74954,-5.79577 11.57163,-8.76021 16.02953,-12.43267 26.12284,-27.86377 24.77366,-49.02391 -0.13625,-2.13646 0.36592,-3.7129 2.36135,-5.04127 7.72635,-5.14332 13.04863,-12.44588 16.8959,-20.66509 8.81788,-18.83789 13.54026,-38.96222 17.73278,-59.1963 1.40678,-6.78945 4.01413,-13.7123 2.06546,-20.62797 -1.51824,-5.38763 0.54953,-7.7742 4.73834,-10.38334 8.78346,-5.47106 11.67657,-14.36391 7.15265,-22.75893 -6.27514,-11.64482 -13.85681,-22.43497 -24.34645,-30.82184 -13.31652,-10.6471 -27.4344,-20.21153 -41.85378,-29.25732 -18.00489,-11.29511 -35.39553,-23.31852 -51.17393,-37.5917 -2.5616,-2.31729 -3.61781,-4.07563 -2.23783,-7.99064 3.05685,-8.67211 2.32151,-17.39534 -3.14133,-25.26687 -3.17454,-4.57433 -7.1364,-8.40652 -11.67748,-11.5748 -12.87304,-8.98157 -25.59379,-18.21789 -38.86927,-26.57164 -4.99529,-3.14333 -5.98497,-5.73176 -4.87749,-11.42243 2.19569,-11.28281 0.57049,-22.30544 -6.99985,-31.65783 -3.53363,-4.36553 -5.4812,-4.16936 -8.98885,0.10938 -1.57974,1.92716 -3.23524,3.88475 -5.19294,5.39481 -6.01658,4.64075 -12.36145,8.72607 -20.17058,10.25051 -0.34876,-2.60899 0.9943,-4.03988 1.75984,-5.64091 13.89675,-29.06511 13.02084,-57.78407 -4.5797,-84.6839 -21.54404,-32.92681 -53.45481,-48.58685 -92.42802,-50.65094 -0.73816,-0.0391 -1.57694,-0.24327 -2.39275,-0.16798 z M 381.08944,240.88213 c 10.99681,-0.27223 22.32486,2.28426 32.88656,7.3988 13.9853,6.7724 25.14818,16.81839 34.0662,29.44482 3.83453,5.42897 7.46188,11.03202 12.92191,15.64531 -2.80391,2.15706 -5.46746,1.68915 -8.15609,0.83598 -6.60142,-2.09489 -11.49085,-6.69815 -16.24534,-11.3658 -10.76471,-10.56823 -22.69145,-19.22868 -37.71505,-22.55776 -24.50719,-5.43071 -47.31181,4.89217 -54.49149,30.37261 -4.748,16.8506 0.8364,31.42656 10.92495,44.80495 7.46227,9.89565 17.27034,16.50931 28.89281,20.61626 2.32946,0.82312 4.60922,1.7835 6.9469,2.69349 -3.16091,6.25437 -5.20996,7.29519 -11.58926,6.18585 -27.02407,-4.69923 -49.03187,-27.36405 -53.37647,-54.68826 -2.44246,-15.36115 -0.23043,-29.77996 7.7817,-43.21699 11.41541,-17.40643 28.82467,-25.71555 47.15267,-26.16926 z m 252.48494,57.85639 c 0.35579,3.00652 0.85113,5.57492 -1.73235,8.11954 -10.09572,9.94384 -7.69776,23.75165 -0.31745,33.65011 1.22496,1.6429 3.32173,2.84294 3.26865,5.5452 -0.90821,0.0588 -1.76085,0.3083 -2.51615,0.13476 -8.34291,-1.91677 -16.2019,0.0662 -24.01334,2.76186 -6.93403,2.39291 -13.86484,4.87463 -21.27967,5.36551 -4.90037,0.32435 -9.85031,0.21693 -16.18063,2.11533 10.55766,5.64239 20.46155,10.03969 28.3676,17.99112 7.00817,6.70896 14.28875,12.16459 24.26026,12.04748 6.5029,-0.0764 13.00489,-0.35814 19.50618,-0.56058 6.95559,-0.21656 12.93766,2.29123 17.30747,7.49062 8.85079,10.53084 22.17212,11.0737 34.26026,16.7313 -0.52053,-8.79365 -2.68933,-15.66476 -8.62825,-20.95612 -4.02928,-3.58996 -8.77383,-6.28804 -13.75668,-8.04728 -18.04953,-6.37259 -22.17423,-23.87754 -30.68389,-37.75774 -3.65333,-5.95911 -0.25033,-12.64067 0.58203,-18.98922 0.38719,-2.95251 0.54963,-6.00823 0.25475,-8.96138 -0.65829,-6.59468 -3.61199,-12.13501 -8.69879,-16.68051 z m -13.63317,56.10434 c 1.52687,-0.12174 2.78345,0.4606 3.45678,2.37903 1.03193,2.94024 0.44638,6.03097 -2.18505,8.14688 -1.15705,0.93041 -2.15717,-0.0284 -2.81786,-1.1231 -1.42092,-3.15042 -1.16266,-5.8065 -1.42664,-8.55902 1.04286,-0.44403 2.05663,-0.77074 2.97277,-0.84379 z m -15.74177,5.33035 c 1.60533,-0.10279 2.71211,1.54464 3.89383,3.20133 5.64565,7.91469 11.89691,10.15434 21.31488,7.75624 2.39596,-1.04332 4.02737,-1.84949 5.84752,-2.74819 3.10451,2.60291 4.24218,6.66526 7.86993,9.30321 -25.02701,2.7276 -32.82008,1.88346 -41.47954,-16.12385 0.99049,-0.93393 1.82376,-1.34202 2.55338,-1.38874 z m -161.75001,16.14533 c -1.66433,0.1706 -2.03867,1.40052 -2.59452,2.36731 -23.70339,41.22432 -41.98235,84.35045 -46.15719,132.32296 -2.6218,30.12647 -0.81724,59.99257 8.49501,88.88333 10.69459,33.17928 28.73454,62.0946 53.34897,86.99454 21.1714,21.41695 44.92759,39.80675 68.02669,58.9834 27.08424,22.48499 52.17747,46.78714 70.24506,77.86129 11.02291,18.87524 17.0154,39.09014 19.82754,61.01862 1.34075,-1.16745 1.84493,-1.41217 2.03014,-1.80669 0.4214,-0.89754 0.7523,-1.85159 1.00334,-2.81263 7.23743,-27.70398 8.18909,-55.53973 1.03664,-83.36939 -10.44428,-40.63912 -35.42112,-71.85027 -65.84555,-99.37017 -19.67363,-17.79542 -41.43118,-33.15577 -60.77802,-51.33848 -17.98894,-16.90646 -33.25112,-35.95866 -45.19699,-57.58684 -13.75717,-24.90747 -22.56313,-51.41542 -26.07681,-79.66607 -2.53659,-20.39442 -3.05421,-40.84243 -0.8544,-61.25109 2.56895,-23.83282 11.18749,-45.78946 22.3202,-66.85487 0.68969,-1.30494 2.10419,-2.57453 1.16989,-4.37522 z m 14.58754,20.42484 c -4.66961,8.58211 -5.92739,18.33685 -8.82421,27.96623 -5.55906,22.93258 -5.47728,45.73374 -1.79114,68.34519 8.58209,52.64404 31.5907,98.20267 69.18483,136.39935 18.04643,18.33567 38.14116,34.45131 56.38845,52.54753 33.53275,33.25522 59.41429,70.71291 65.27335,119.04888 2.50723,20.68381 2.02543,41.16716 -4.368,61.22572 -0.29248,0.91764 -0.9307,1.84519 0.26457,2.78914 0.37144,-0.093 0.98959,-0.059 1.2639,-0.34762 2.06195,-2.16961 4.11326,-4.35252 6.06113,-6.62343 11.54293,-13.45668 22.22781,-27.38184 28.87127,-44.12911 12.76178,-32.17051 11.04407,-63.46375 -4.64623,-94.11209 -13.0409,-25.4731 -32.83293,-45.16504 -54.83639,-62.88789 -20.22446,-16.28967 -43.15551,-28.53067 -64.7776,-42.72868 -42.73872,-28.06393 -73.03282,-65.39594 -87.51521,-114.81625 -8.39177,-28.63631 -10.92548,-57.48515 -3.69587,-86.7504 1.29108,-5.22658 2.91307,-10.37243 4.38175,-15.55546 -0.41127,-0.12403 -0.82334,-0.24708 -1.2346,-0.37111 z m 230.28419,88.55908 c -1.45684,0.0514 -2.89321,0.46873 -4.19363,1.77158 1.18765,2.47674 3.53002,2.37822 5.5105,2.95717 11.25457,3.2899 22.82479,4.87848 34.46214,5.59794 10.80237,0.66781 21.66484,0.91301 32.4632,-0.40041 1.45974,-0.17763 3.86814,0.42482 4.02316,-1.94932 0.1512,-2.31566 -1.92169,-2.8099 -3.80173,-3.14468 -0.81952,-0.14595 -1.63984,-0.29842 -2.90023,-0.47269 -20.78271,-0.22431 -41.04088,-1.644 -61.25029,-3.93964 -1.37998,-0.15678 -2.85618,-0.47135 -4.31312,-0.41995 z m 149.04372,3.46697 c 4.15038,10.40188 -16.61638,77.4861 -26.51966,84.04909 0.26317,-9.66367 0.22233,-18.92947 -4.6051,-27.24939 -2.85156,-4.77526 -1.56981,-8.52515 -0.46253,-12.93033 3.34009,-13.28757 9.94201,-23.85752 21.31688,-31.71642 4.33941,-2.99802 6.09324,-8.67127 10.27041,-12.15295 z m -164.52092,17.90909 c -1.28165,0.0262 -2.47963,0.39251 -3.29022,1.79306 0.84721,2.40179 2.82729,2.71492 4.53857,3.05679 16.8356,3.3637 33.56867,7.35016 50.89751,7.53553 14.23688,0.15229 28.38727,-0.52431 42.36919,-3.32243 1.76055,-0.35237 4.73964,-0.38802 4.274,-3.11148 -0.46113,-2.69624 -3.10341,-2.66493 -5.33221,-2.05674 -2.78635,0.76035 -5.61013,0.80808 -8.91631,0.81058 -11.30644,0.24672 -22.19931,1.26844 -32.97861,0.56058 -16.45052,-1.08019 -32.81948,-3.3795 -49.22987,-5.09595 -0.76384,-0.0799 -1.56299,-0.18566 -2.33205,-0.16994 z m -3.42738,20.85455 c -0.76775,0.0471 -1.536,0.28086 -2.30254,0.83794 1.96753,2.90584 1.99221,2.84939 5.27341,4.29904 22.28911,9.84728 45.63724,10.32534 69.31216,7.75233 6.79717,-0.73867 13.62203,-1.40656 20.23319,-3.31461 1.70536,-0.49216 3.68664,-0.57261 4.84027,-4.61742 -17.09758,0.28468 -33.56937,3.7331 -50.54284,2.06651 -14.92004,-0.29298 -29.01826,-2.88107 -42.98453,-6.34992 -1.27012,-0.31546 -2.54947,-0.75242 -3.82912,-0.67387 z m 111.41878,35.4041 c 5.55304,-0.10486 10.52495,2.28647 14.89517,6.51009 1.297,1.25349 2.90093,3.05308 1.56971,4.80297 -2.85197,3.74873 -1.09403,7.26563 -0.1489,10.91265 3.41846,13.19157 1.04226,24.94504 -8.64791,35.11699 -1.60624,-1.96366 -0.74899,-4.91358 -3.78989,-6.36165 -3.36939,9.38919 -10.36291,15.86359 -18.07171,22.98552 -2.17813,-7.78987 4.30359,-13.56166 2.18105,-20.63188 -4.16263,11.18163 -14.04976,16.026 -23.09229,21.85459 -2.69204,1.7352 -4.06178,1.46889 -6.73336,-0.62503 -6.27373,-4.91704 -11.57533,-10.39859 -15.18321,-17.50478 -0.41809,-0.82334 -1.12644,-1.71614 -3.10401,-1.28521 3.33748,7.07334 -0.34735,12.16467 -5.49485,18.01261 -1.64416,-6.92984 -4.61171,-12.08862 -9.39841,-16.25861 -2.88899,-2.5168 -5.14588,-2.36835 -7.90314,-0.12111 -3.65955,2.98251 -5.88594,7.22381 -9.90399,10.98688 -4.7304,-7.66651 -8.60316,-15.01559 -3.88209,-24.98171 -6.8072,2.43371 -6.7778,8.43987 -10.61334,11.89317 -11.84824,-10.92443 -23.62666,-21.54076 -24.1819,-39.17578 -0.0472,-1.49378 -0.0261,-3.01462 0.19204,-4.4885 0.71036,-4.79436 2.53722,-5.52787 6.68239,-2.79702 11.66885,7.68757 23.81558,14.0289 38.14817,15.29178 18.82863,1.65895 36.51536,-1.8234 53.15702,-10.70561 9.38165,-4.95032 18.1304,-9.53606 27.57788,-12.46741 1.97947,-0.6142 3.89463,-0.92799 5.74557,-0.96295 z"
   style="fill:url(#linearGradient2);stroke-width:1.00168" /></svg>
